# Blender v2.91.2 OBJ File: '大きさ調整.blend'
# www.blender.org
o GolfTee_球
v -0.000000 0.074149 -0.000000
v 0.002287 0.074702 -0.002726
v 0.004226 0.075895 -0.005037
v 0.005640 0.076313 -0.006721
v 0.005776 0.075198 -0.006883
v 0.005673 0.072187 -0.006760
v 0.003768 0.063992 -0.004491
v 0.002287 0.000483 -0.002726
v 0.003504 0.074702 -0.000618
v 0.006475 0.075895 -0.001142
v 0.008640 0.076313 -0.001524
v 0.008849 0.075198 -0.001560
v 0.008691 0.072187 -0.001532
v 0.005774 0.063992 -0.001018
v 0.003504 0.000483 -0.000618
v 0.003082 0.074702 0.001779
v 0.005694 0.075895 0.003288
v 0.007598 0.076313 0.004387
v 0.007781 0.075198 0.004493
v 0.007643 0.072187 0.004412
v 0.005077 0.063992 0.002931
v 0.003082 0.000483 0.001779
v 0.001217 0.074702 0.003344
v 0.002249 0.075895 0.006179
v 0.003001 0.076313 0.008245
v 0.003073 0.075198 0.008443
v 0.003018 0.072187 0.008293
v 0.002005 0.063992 0.005509
v 0.001217 0.000483 0.003344
v 0.000000 -0.010327 -0.000000
v -0.001217 0.074702 0.003344
v -0.002249 0.075895 0.006179
v -0.003001 0.076313 0.008245
v -0.003073 0.075198 0.008443
v -0.003018 0.072187 0.008293
v -0.002005 0.063992 0.005509
v -0.001217 0.000483 0.003344
v -0.003082 0.074702 0.001779
v -0.005694 0.075895 0.003288
v -0.007598 0.076313 0.004387
v -0.007781 0.075198 0.004493
v -0.007643 0.072187 0.004412
v -0.005077 0.063992 0.002931
v -0.003082 0.000483 0.001779
v -0.003504 0.074702 -0.000618
v -0.006475 0.075895 -0.001142
v -0.008640 0.076313 -0.001524
v -0.008849 0.075198 -0.001560
v -0.008691 0.072187 -0.001532
v -0.005774 0.063992 -0.001018
v -0.003504 0.000483 -0.000618
v -0.002287 0.074702 -0.002726
v -0.004226 0.075895 -0.005037
v -0.005640 0.076313 -0.006721
v -0.005776 0.075198 -0.006883
v -0.005673 0.072187 -0.006760
v -0.003768 0.063992 -0.004491
v -0.002287 0.000483 -0.002726
v -0.000000 0.074702 -0.003558
v -0.000000 0.075895 -0.006575
v -0.000000 0.076313 -0.008774
v -0.000000 0.075198 -0.008985
v -0.000000 0.072187 -0.008825
v -0.000000 0.063992 -0.005863
v -0.000000 0.000483 -0.003558
v 0.004902 0.069574 -0.005843
v 0.007511 0.069574 -0.001324
v 0.006605 0.069574 0.003813
v 0.002609 0.069574 0.007167
v -0.002609 0.069574 0.007167
v -0.006605 0.069574 0.003813
v -0.007511 0.069574 -0.001324
v -0.004902 0.069574 -0.005843
v -0.000000 0.069574 -0.007627
v 0.002602 0.057252 -0.003100
v 0.003986 0.057252 -0.000703
v 0.003505 0.057252 0.002024
v 0.001384 0.057252 0.003803
v -0.001384 0.057252 0.003803
v -0.003505 0.057252 0.002024
v -0.003986 0.057252 -0.000703
v -0.002602 0.057252 -0.003100
v -0.000000 0.057252 -0.004047
vt 0.666667 0.500000
vt 0.666667 0.625000
vt 0.555556 0.625000
vt 0.555556 0.500000
vt 0.666667 0.750000
vt 0.666667 0.875000
vt 0.555556 0.875000
vt 0.555556 0.750000
vt 0.666667 0.231743
vt 0.666667 0.244417
vt 0.555556 0.244417
vt 0.555556 0.231744
vt 0.666667 0.375000
vt 0.555556 0.375000
vt 0.611111 1.000000
vt 0.611111 0.000000
vt 0.666667 0.125000
vt 0.555556 0.125000
vt 0.666667 0.313695
vt 0.555556 0.313695
vt 0.444444 0.244417
vt 0.444444 0.231744
vt 0.444444 0.500000
vt 0.444444 0.375000
vt 0.444444 0.750000
vt 0.444444 0.625000
vt 0.500000 1.000000
vt 0.444445 0.875000
vt 0.500000 0.000000
vt 0.444445 0.125000
vt 0.444444 0.313695
vt 0.388889 1.000000
vt 0.333333 0.875000
vt 0.388889 0.000000
vt 0.333333 0.125000
vt 0.333333 0.375000
vt 0.333333 0.313695
vt 0.333333 0.625000
vt 0.333333 0.500000
vt 0.333333 0.750000
vt 0.333333 0.244417
vt 0.333333 0.231743
vt 0.222222 0.375000
vt 0.222222 0.313695
vt 0.222222 0.625000
vt 0.222222 0.500000
vt 0.222222 0.875000
vt 0.222222 0.750000
vt 0.222222 0.244417
vt 0.222222 0.231743
vt 0.277778 1.000000
vt 0.277778 0.000000
vt 0.222222 0.125000
vt 0.111111 0.244417
vt 0.111111 0.231743
vt 0.111111 0.500000
vt 0.111111 0.375000
vt 0.111111 0.750000
vt 0.111111 0.625000
vt 0.166667 1.000000
vt 0.111111 0.875000
vt 0.166667 0.000000
vt 0.111111 0.125000
vt 0.111111 0.313695
vt 0.000000 0.500000
vt 0.000000 0.375000
vt 0.000000 0.750000
vt 0.000000 0.625000
vt 0.055556 1.000000
vt 0.000000 0.875000
vt 0.055556 0.000000
vt 0.000000 0.125000
vt -0.002728 0.313695
vt 0.000000 0.244417
vt 0.000000 0.231743
vt 0.944444 0.000000
vt 1.000000 0.125000
vt 0.888889 0.125000
vt 1.002728 0.313695
vt 1.000000 0.375000
vt 0.888889 0.375000
vt 0.888889 0.313695
vt 1.000000 0.500000
vt 1.000000 0.625000
vt 0.888889 0.625000
vt 0.888889 0.500000
vt 1.000000 0.750000
vt 1.000000 0.875000
vt 0.888889 0.875000
vt 0.888889 0.750000
vt 1.000000 0.231743
vt 1.000000 0.244417
vt 0.888889 0.244417
vt 0.888889 0.231743
vt 0.944444 1.000000
vt 0.777778 0.625000
vt 0.777778 0.500000
vt 0.777778 0.875000
vt 0.777778 0.750000
vt 0.777778 0.244417
vt 0.777778 0.231743
vt 0.777778 0.375000
vt 0.833333 1.000000
vt 0.833333 0.000000
vt 0.777778 0.125000
vt 0.777778 0.313695
vt 0.722222 1.000000
vt 0.722222 0.000000
vn 0.0000 0.0654 -0.9978
vn 0.0000 0.7578 -0.6524
vn 0.4194 0.7578 -0.4998
vn 0.6414 0.0654 -0.7644
vn 0.0000 0.9659 0.2589
vn 0.0000 0.9586 0.2849
vn -0.1831 0.9586 0.2182
vn -0.1664 0.9659 0.1983
vn 0.0000 -0.1393 -0.9902
vn 0.0000 -0.2820 -0.9594
vn 0.6167 -0.2820 -0.7349
vn 0.6365 -0.1393 -0.7586
vn 0.0000 -0.2302 -0.9731
vn 0.6255 -0.2302 -0.7454
vn 0.0000 1.0000 0.0000
vn 0.0000 -1.0000 0.0000
vn 0.0000 -0.1574 -0.9875
vn 0.6348 -0.1574 -0.7565
vn 0.0000 -0.3644 -0.9312
vn 0.5986 -0.3644 -0.7134
vn 0.9448 -0.2820 -0.1666
vn 0.9752 -0.1393 -0.1719
vn 0.9827 0.0654 -0.1733
vn 0.9583 -0.2302 -0.1690
vn -0.2550 0.9659 0.0450
vn 0.6425 0.7578 -0.1133
vn -0.2806 0.9586 0.0495
vn 0.9725 -0.1574 -0.1715
vn 0.9171 -0.3644 -0.1617
vn -0.2467 0.9586 -0.1424
vn 0.8552 -0.1574 0.4938
vn 0.8427 -0.2302 0.4866
vn 0.8065 -0.3644 0.4656
vn 0.5650 0.7578 0.3262
vn 0.8642 0.0654 0.4989
vn -0.2242 0.9659 -0.1295
vn 0.8308 -0.2820 0.4797
vn 0.8576 -0.1393 0.4951
vn 0.3328 -0.2302 0.9144
vn 0.3185 -0.3644 0.8751
vn 0.2232 0.7578 0.6131
vn 0.3413 0.0654 0.9377
vn -0.0974 0.9586 -0.2677
vn -0.0885 0.9659 -0.2433
vn 0.3281 -0.2820 0.9015
vn 0.3387 -0.1393 0.9305
vn 0.3377 -0.1574 0.9279
vn -0.3281 -0.2820 0.9015
vn -0.3387 -0.1393 0.9305
vn -0.3413 0.0654 0.9377
vn -0.3328 -0.2302 0.9144
vn 0.0885 0.9659 -0.2433
vn -0.2231 0.7578 0.6131
vn 0.0974 0.9586 -0.2677
vn -0.3377 -0.1574 0.9279
vn -0.3185 -0.3644 0.8751
vn -0.8642 0.0654 0.4989
vn -0.8427 -0.2302 0.4866
vn 0.2242 0.9659 -0.1295
vn -0.5650 0.7578 0.3262
vn 0.2467 0.9586 -0.1424
vn -0.8552 -0.1574 0.4938
vn -0.8065 -0.3644 0.4656
vn -0.8308 -0.2820 0.4797
vn -0.8576 -0.1393 0.4951
vn -0.9725 -0.1574 -0.1715
vn -0.9583 -0.2302 -0.1690
vn -0.9171 -0.3644 -0.1617
vn -0.6425 0.7578 -0.1133
vn -0.9827 0.0654 -0.1733
vn 0.2806 0.9586 0.0495
vn 0.2550 0.9659 0.0450
vn -0.9448 -0.2820 -0.1666
vn -0.9752 -0.1393 -0.1719
vn -0.4194 0.7578 -0.4998
vn -0.6414 0.0654 -0.7644
vn 0.1831 0.9586 0.2182
vn 0.1664 0.9659 0.1983
vn -0.6167 -0.2820 -0.7349
vn -0.6365 -0.1393 -0.7586
vn -0.6255 -0.2302 -0.7454
vn -0.6348 -0.1574 -0.7565
vn -0.5986 -0.3644 -0.7134
s 1
f 62/1/1 61/2/2 4/3/3 5/4/4
f 60/5/5 59/6/6 2/7/7 3/8/8
f 83/9/9 64/10/10 7/11/11 75/12/12
f 63/13/13 62/1/1 5/4/4 6/14/14
f 61/2/2 60/5/5 3/8/8 4/3/3
f 59/6/6 1/15/15 2/7/7
f 30/16/16 65/17/17 8/18/18
f 74/19/19 63/13/13 6/14/14 66/20/20
f 75/12/12 7/11/11 14/21/21 76/22/22
f 6/14/14 5/4/4 12/23/23 13/24/24
f 4/3/3 3/8/8 10/25/25 11/26/26
f 2/7/7 1/27/15 9/28/27
f 30/29/16 8/18/18 15/30/28
f 66/20/20 6/14/14 13/24/24 67/31/29
f 5/4/4 4/3/3 11/26/26 12/23/23
f 3/8/8 2/7/7 9/28/27 10/25/25
f 9/28/27 1/32/15 16/33/30
f 30/34/16 15/30/28 22/35/31
f 67/31/29 13/24/24 20/36/32 68/37/33
f 12/23/23 11/26/26 18/38/34 19/39/35
f 10/25/25 9/28/27 16/33/30 17/40/36
f 76/22/22 14/21/21 21/41/37 77/42/38
f 13/24/24 12/23/23 19/39/35 20/36/32
f 11/26/26 10/25/25 17/40/36 18/38/34
f 68/37/33 20/36/32 27/43/39 69/44/40
f 19/39/35 18/38/34 25/45/41 26/46/42
f 17/40/36 16/33/30 23/47/43 24/48/44
f 77/42/38 21/41/37 28/49/45 78/50/46
f 20/36/32 19/39/35 26/46/42 27/43/39
f 18/38/34 17/40/36 24/48/44 25/45/41
f 16/33/30 1/51/15 23/47/43
f 30/52/16 22/35/31 29/53/47
f 78/50/46 28/49/45 36/54/48 79/55/49
f 27/43/39 26/46/42 34/56/50 35/57/51
f 25/45/41 24/48/44 32/58/52 33/59/53
f 23/47/43 1/60/15 31/61/54
f 30/62/16 29/53/47 37/63/55
f 69/44/40 27/43/39 35/57/51 70/64/56
f 26/46/42 25/45/41 33/59/53 34/56/50
f 24/48/44 23/47/43 31/61/54 32/58/52
f 35/57/51 34/56/50 41/65/57 42/66/58
f 33/59/53 32/58/52 39/67/59 40/68/60
f 31/61/54 1/69/15 38/70/61
f 30/71/16 37/63/55 44/72/62
f 70/64/56 35/57/51 42/66/58 71/73/63
f 34/56/50 33/59/53 40/68/60 41/65/57
f 32/58/52 31/61/54 38/70/61 39/67/59
f 79/55/49 36/54/48 43/74/64 80/75/65
f 30/76/16 44/77/62 51/78/66
f 71/79/63 42/80/58 49/81/67 72/82/68
f 41/83/57 40/84/60 47/85/69 48/86/70
f 39/87/59 38/88/61 45/89/71 46/90/72
f 80/91/65 43/92/64 50/93/73 81/94/74
f 42/80/58 41/83/57 48/86/70 49/81/67
f 40/84/60 39/87/59 46/90/72 47/85/69
f 38/88/61 1/95/15 45/89/71
f 48/86/70 47/85/69 54/96/75 55/97/76
f 46/90/72 45/89/71 52/98/77 53/99/78
f 81/94/74 50/93/73 57/100/79 82/101/80
f 49/81/67 48/86/70 55/97/76 56/102/81
f 47/85/69 46/90/72 53/99/78 54/96/75
f 45/89/71 1/103/15 52/98/77
f 30/104/16 51/78/66 58/105/82
f 72/82/68 49/81/67 56/102/81 73/106/83
f 82/101/80 57/100/79 64/10/10 83/9/9
f 56/102/81 55/97/76 62/1/1 63/13/13
f 54/96/75 53/99/78 60/5/5 61/2/2
f 52/98/77 1/107/15 59/6/6
f 30/108/16 58/105/82 65/17/17
f 73/106/83 56/102/81 63/13/13 74/19/19
f 55/97/76 54/96/75 61/2/2 62/1/1
f 53/99/78 52/98/77 59/6/6 60/5/5
f 57/100/79 73/106/83 74/19/19 64/10/10
f 50/93/73 72/82/68 73/106/83 57/100/79
f 43/92/64 71/79/63 72/82/68 50/93/73
f 36/54/48 70/64/56 71/73/63 43/74/64
f 28/49/45 69/44/40 70/64/56 36/54/48
f 21/41/37 68/37/33 69/44/40 28/49/45
f 14/21/21 67/31/29 68/37/33 21/41/37
f 7/11/11 66/20/20 67/31/29 14/21/21
f 64/10/10 74/19/19 66/20/20 7/11/11
f 58/105/82 82/101/80 83/9/9 65/17/17
f 51/78/66 81/94/74 82/101/80 58/105/82
f 44/77/62 80/91/65 81/94/74 51/78/66
f 37/63/55 79/55/49 80/75/65 44/72/62
f 29/53/47 78/50/46 79/55/49 37/63/55
f 22/35/31 77/42/38 78/50/46 29/53/47
f 15/30/28 76/22/22 77/42/38 22/35/31
f 8/18/18 75/12/12 76/22/22 15/30/28
f 65/17/17 83/9/9 75/12/12 8/18/18
